<svg width="10" height="20" viewBox="0 0 10 20" fill="none" xmlns="http://www.w3.org/2000/svg">
<path d="M5.29488 16.5356C5.8312 16.5021 6.30717 16.3948 6.72282 16.2138C7.13846 16.0261 7.49042 15.7848 7.77869 15.4898C8.06696 15.1881 8.28484 14.8429 8.43232 14.454C8.57981 14.0585 8.65355 13.6362 8.65355 13.187C8.65355 12.7445 8.56975 12.3691 8.40216 12.0607C8.23456 11.7523 8.00998 11.4909 7.72841 11.2764C7.44684 11.0618 7.1217 10.8842 6.75299 10.7434C6.39097 10.5959 6.00885 10.4585 5.60661 10.3311L5.29488 16.5356ZM5.29488 3.64393C4.78538 3.67075 4.33957 3.7646 3.95744 3.9255C3.58202 4.07969 3.26694 4.28416 3.01219 4.53891C2.75744 4.78695 2.56638 5.07187 2.439 5.39366C2.31163 5.71545 2.24794 6.054 2.24794 6.40931C2.24794 6.82495 2.32168 7.18026 2.46917 7.47523C2.61666 7.77021 2.81777 8.02495 3.07252 8.23948C3.32727 8.4473 3.6189 8.62831 3.94739 8.7825C4.28258 8.92999 4.63789 9.06742 5.01331 9.19479L5.29488 3.64393ZM5.64684 9.39591C6.12282 9.5501 6.59544 9.71435 7.06472 9.88865C7.534 10.0562 7.95299 10.2741 8.32171 10.5423C8.69043 10.8104 8.98875 11.1423 9.21668 11.5378C9.44462 11.9334 9.55859 12.4328 9.55859 13.0361C9.55859 13.6127 9.46138 14.1557 9.26696 14.6652C9.07925 15.1747 8.80104 15.6239 8.43232 16.0127C8.06361 16.3948 7.61109 16.7032 7.07478 16.9378C6.54516 17.1725 5.93846 17.3066 5.25466 17.3401L5.14404 19.4619C5.13734 19.549 5.10717 19.6228 5.05354 19.6831C5.00661 19.7434 4.93622 19.7736 4.84236 19.7736H4.48035L4.60102 17.3401C3.74292 17.2999 2.99543 17.1155 2.35855 16.787C1.72838 16.4585 1.17196 16.0261 0.689274 15.4898L0.960783 15.0976C1.04123 14.9971 1.13509 14.9468 1.24235 14.9468C1.30268 14.9468 1.37643 14.9836 1.46358 15.0574C1.55073 15.1311 1.65799 15.225 1.78537 15.339C1.91274 15.4462 2.06358 15.5669 2.23788 15.701C2.41219 15.8283 2.6133 15.9524 2.84124 16.073C3.07588 16.187 3.34068 16.2876 3.63566 16.3747C3.93063 16.4619 4.26583 16.5155 4.64125 16.5356L4.97309 10.13C4.51722 9.98921 4.07141 9.83502 3.63566 9.66742C3.1999 9.49312 2.81107 9.27189 2.46917 9.00373C2.13397 8.72887 1.86246 8.39367 1.65464 7.99814C1.44682 7.5959 1.34291 7.09311 1.34291 6.48975C1.34291 6.02048 1.43006 5.57131 1.60436 5.14226C1.78537 4.70651 2.04347 4.32103 2.37867 3.98583C2.72057 3.64393 3.13956 3.36907 3.63566 3.16125C4.13175 2.95342 4.70158 2.83946 5.34516 2.81935L5.42561 1.14001C5.42561 1.04615 5.45242 0.969058 5.50605 0.908723C5.55969 0.848388 5.63008 0.818221 5.71723 0.818221H6.07924L5.97868 2.83946C6.65578 2.88639 7.24908 3.03722 7.75858 3.29197C8.26808 3.54002 8.734 3.87522 9.15635 4.29756L8.93512 4.63947C8.86808 4.75343 8.77758 4.81042 8.66361 4.81042C8.58316 4.81042 8.4759 4.75678 8.34182 4.64952C8.21445 4.53555 8.04349 4.41153 7.82897 4.27745C7.62115 4.13667 7.36304 4.00594 7.05466 3.88527C6.74628 3.7579 6.37421 3.67745 5.93846 3.64393L5.64684 9.39591Z" fill="#C7C7C7"/>
</svg>
