<svg width="13" height="18" viewBox="0 0 13 18" fill="none" xmlns="http://www.w3.org/2000/svg">
<path d="M12.6203 8.70072C12.6203 10.1874 12.4605 11.4743 12.1408 12.5613C11.8211 13.6484 11.3854 14.5476 10.8339 15.2589C10.2824 15.9703 9.63498 16.5018 8.89163 16.8535C8.15628 17.1972 7.36898 17.3691 6.52971 17.3691C5.69045 17.3691 4.90315 17.1972 4.1678 16.8535C3.43244 16.5018 2.78901 15.9703 2.2375 15.2589C1.68598 14.5476 1.25037 13.6484 0.930647 12.5613C0.618921 11.4743 0.463059 10.1874 0.463059 8.70072C0.463059 7.21403 0.618921 5.92716 0.930647 4.84012C1.25037 3.75308 1.68598 2.85387 2.2375 2.14249C2.78901 1.43112 3.43244 0.903585 4.1678 0.559888C4.90315 0.208197 5.69045 0.0323523 6.52971 0.0323523C7.36898 0.0323523 8.15628 0.208197 8.89163 0.559888C9.63498 0.903585 10.2824 1.43112 10.8339 2.14249C11.3854 2.85387 11.8211 3.75308 12.1408 4.84012C12.4605 5.92716 12.6203 7.21403 12.6203 8.70072ZM11.4214 8.70072C11.4214 7.32593 11.2895 6.15096 11.0258 5.17582C10.762 4.20068 10.4063 3.40538 9.95869 2.78992C9.51908 2.16647 8.99954 1.71087 8.40007 1.42313C7.80859 1.13538 7.18514 0.991508 6.52971 0.991508C5.87429 0.991508 5.25084 1.13538 4.65936 1.42313C4.06788 1.71087 3.54834 2.16647 3.10074 2.78992C2.65313 3.40538 2.29744 4.20068 2.03368 5.17582C1.76991 6.15096 1.63802 7.32593 1.63802 8.70072C1.63802 10.0835 1.76991 11.2625 2.03368 12.2376C2.29744 13.2047 2.65313 14 3.10074 14.6235C3.54834 15.239 4.06788 15.6906 4.65936 15.9783C5.25084 16.2581 5.87429 16.3979 6.52971 16.3979C7.18514 16.3979 7.80859 16.2581 8.40007 15.9783C8.99954 15.6906 9.51908 15.239 9.95869 14.6235C10.4063 14 10.762 13.2047 11.0258 12.2376C11.2895 11.2625 11.4214 10.0835 11.4214 8.70072Z" fill="#C7C7C7"/>
</svg>
