<svg width="80" height="13" viewBox="0 0 80 13" fill="none" xmlns="http://www.w3.org/2000/svg">
<path d="M5.3165 3.68798C6.26552 3.68798 7.03033 3.83871 7.61091 4.14016C8.19149 4.43045 8.48178 4.82123 8.48178 5.31249C8.48178 5.55812 8.4092 5.77584 8.26406 5.96564C8.11891 6.14428 7.92911 6.2336 7.69464 6.2336C7.516 6.2336 7.37086 6.21127 7.25921 6.16661C7.14756 6.11079 7.03591 6.0438 6.92426 5.96564C6.82377 5.87632 6.72329 5.80375 6.6228 5.74792C6.51115 5.6921 6.34368 5.64186 6.12038 5.5972C5.90824 5.55254 5.73519 5.53021 5.60121 5.53021C4.76383 5.53021 4.1051 5.79258 3.625 6.31734C3.15607 6.83093 2.92161 7.50641 2.92161 8.34379C2.92161 9.14767 3.16165 9.81757 3.64175 10.3535C4.12184 10.8782 4.73592 11.1406 5.48397 11.1406C6.03106 11.1406 6.43858 11.0736 6.70654 10.9396C6.77353 10.9062 6.86285 10.8503 6.9745 10.7722C7.09732 10.6829 7.20897 10.6159 7.30945 10.5712C7.40994 10.5265 7.53275 10.5042 7.6779 10.5042C7.95702 10.5042 8.17474 10.5935 8.33105 10.7722C8.49852 10.9508 8.58226 11.1797 8.58226 11.4588C8.58226 11.7268 8.42595 11.978 8.11333 12.2125C7.80071 12.4469 7.38761 12.6367 6.87402 12.7819C6.36043 12.9159 5.81334 12.9828 5.23276 12.9828C4.37306 12.9828 3.61384 12.7819 2.9551 12.3799C2.30753 11.978 1.80511 11.4253 1.44783 10.7219C1.09055 10.0074 0.911907 9.21466 0.911907 8.34379C0.911907 7.43942 1.09613 6.63554 1.46457 5.93215C1.84418 5.22875 2.36894 4.68167 3.03884 4.29089C3.70874 3.88895 4.46796 3.68798 5.3165 3.68798ZM12.2106 11.7938C12.2106 12.0841 12.1101 12.3297 11.9091 12.5307C11.7193 12.7205 11.4793 12.8154 11.189 12.8154C10.9099 12.8154 10.6754 12.7205 10.4856 12.5307C10.2958 12.3297 10.2009 12.0841 10.2009 11.7938V1.44382C10.2009 1.15353 10.2958 0.913478 10.4856 0.723673C10.6866 0.522704 10.9322 0.422219 11.2225 0.422219C11.5016 0.422219 11.7361 0.522704 11.9259 0.723673C12.1157 0.913478 12.2106 1.15353 12.2106 1.44382V11.7938ZM22.992 8.34379C22.992 9.23699 22.7911 10.0409 22.3891 10.7554C21.9872 11.4588 21.4345 12.0059 20.7311 12.3967C20.0389 12.7875 19.2741 12.9828 18.4367 12.9828C17.5882 12.9828 16.8178 12.7875 16.1256 12.3967C15.4333 12.0059 14.8863 11.4588 14.4843 10.7554C14.0824 10.0409 13.8814 9.23699 13.8814 8.34379C13.8814 7.45059 14.0824 6.65229 14.4843 5.94889C14.8863 5.23433 15.4333 4.68167 16.1256 4.29089C16.8178 3.88895 17.5882 3.68798 18.4367 3.68798C19.2741 3.68798 20.0389 3.88895 20.7311 4.29089C21.4345 4.68167 21.9872 5.23433 22.3891 5.94889C22.7911 6.65229 22.992 7.45059 22.992 8.34379ZM20.9823 8.34379C20.9823 7.7967 20.8651 7.31102 20.6306 6.88675C20.4073 6.45132 20.1003 6.11637 19.7095 5.8819C19.3299 5.64744 18.9057 5.53021 18.4367 5.53021C17.9678 5.53021 17.5379 5.64744 17.1472 5.8819C16.7676 6.11637 16.4605 6.45132 16.2261 6.88675C16.0028 7.31102 15.8911 7.7967 15.8911 8.34379C15.8911 8.89087 16.0028 9.37655 16.2261 9.80082C16.4605 10.2251 16.7676 10.5545 17.1472 10.7889C17.5379 11.0234 17.9678 11.1406 18.4367 11.1406C18.9057 11.1406 19.3299 11.0234 19.7095 10.7889C20.1003 10.5545 20.4073 10.2251 20.6306 9.80082C20.8651 9.37655 20.9823 8.89087 20.9823 8.34379ZM31.3199 3.85546C31.6102 3.85546 31.8502 3.95594 32.04 4.15691C32.2298 4.34672 32.3247 4.58676 32.3247 4.87705V9.13092C32.3247 10.3367 31.9898 11.2802 31.3199 11.9612C30.6611 12.6423 29.7177 12.9828 28.4895 12.9828C27.2614 12.9828 26.318 12.6423 25.6592 11.9612C25.0005 11.2802 24.6711 10.3367 24.6711 9.13092V4.87705C24.6711 4.58676 24.766 4.34672 24.9558 4.15691C25.1456 3.95594 25.3857 3.85546 25.676 3.85546C25.9663 3.85546 26.2063 3.95594 26.3961 4.15691C26.5859 4.34672 26.6808 4.58676 26.6808 4.87705V9.13092C26.6808 9.81198 26.8315 10.32 27.133 10.6549C27.4345 10.9787 27.8866 11.1406 28.4895 11.1406C29.1036 11.1406 29.5614 10.9787 29.8628 10.6549C30.1643 10.32 30.315 9.81198 30.315 9.13092V4.87705C30.315 4.58676 30.4099 4.34672 30.5997 4.15691C30.7895 3.95594 31.0296 3.85546 31.3199 3.85546ZM41.7521 0.422219C42.0424 0.422219 42.2825 0.517121 42.4723 0.706926C42.6621 0.896731 42.757 1.14236 42.757 1.44382V11.7938C42.757 12.0841 42.6621 12.3297 42.4723 12.5307C42.2825 12.7205 42.0424 12.8154 41.7521 12.8154C41.4618 12.8154 41.2218 12.7205 41.032 12.5307C40.8533 12.3409 40.7584 12.1008 40.7473 11.8105C40.4681 12.1343 40.0885 12.4134 39.6084 12.6479C39.1395 12.8712 38.6427 12.9828 38.1179 12.9828C37.3475 12.9828 36.6497 12.7875 36.0245 12.3967C35.3992 11.9947 34.9024 11.4421 34.534 10.7387C34.1767 10.0353 33.998 9.23699 33.998 8.34379C33.998 7.45059 34.1767 6.65229 34.534 5.94889C34.8912 5.23433 35.3769 4.68167 35.991 4.29089C36.6162 3.88895 37.3029 3.68798 38.0509 3.68798C38.5868 3.68798 39.0893 3.78847 39.5582 3.98944C40.0271 4.17924 40.4235 4.42487 40.7473 4.72633V1.44382C40.7473 1.15353 40.8422 0.913478 41.032 0.723673C41.2218 0.522704 41.4618 0.422219 41.7521 0.422219ZM38.3691 11.1406C39.0949 11.1406 39.6866 10.8782 40.1444 10.3535C40.6021 9.81757 40.831 9.14767 40.831 8.34379C40.831 7.53991 40.6021 6.87001 40.1444 6.33409C39.6866 5.79817 39.0949 5.53021 38.3691 5.53021C37.6546 5.53021 37.0684 5.79817 36.6106 6.33409C36.1529 6.87001 35.924 7.53991 35.924 8.34379C35.924 9.14767 36.1473 9.81757 36.5939 10.3535C37.0517 10.8782 37.6434 11.1406 38.3691 11.1406ZM48.8371 3.68798C49.7861 3.68798 50.5509 3.83871 51.1315 4.14016C51.7121 4.43045 52.0024 4.82123 52.0024 5.31249C52.0024 5.55812 51.9298 5.77584 51.7847 5.96564C51.6395 6.14428 51.4497 6.2336 51.2152 6.2336C51.0366 6.2336 50.8915 6.21127 50.7798 6.16661C50.6682 6.11079 50.5565 6.0438 50.4449 5.96564C50.3444 5.87632 50.2439 5.80375 50.1434 5.74792C50.0318 5.6921 49.8643 5.64186 49.641 5.5972C49.4288 5.55254 49.2558 5.53021 49.1218 5.53021C48.2844 5.53021 47.6257 5.79258 47.1456 6.31734C46.6767 6.83093 46.4422 7.50641 46.4422 8.34379C46.4422 9.14767 46.6823 9.81757 47.1623 10.3535C47.6424 10.8782 48.2565 11.1406 49.0046 11.1406C49.5517 11.1406 49.9592 11.0736 50.2271 10.9396C50.2941 10.9062 50.3835 10.8503 50.4951 10.7722C50.6179 10.6829 50.7296 10.6159 50.8301 10.5712C50.9305 10.5265 51.0534 10.5042 51.1985 10.5042C51.4776 10.5042 51.6953 10.5935 51.8516 10.7722C52.0191 10.9508 52.1029 11.1797 52.1029 11.4588C52.1029 11.7268 51.9466 11.978 51.6339 12.2125C51.3213 12.4469 50.9082 12.6367 50.3946 12.7819C49.881 12.9159 49.3339 12.9828 48.7534 12.9828C47.8937 12.9828 47.1344 12.7819 46.4757 12.3799C45.8281 11.978 45.3257 11.4253 44.9684 10.7219C44.6111 10.0074 44.4325 9.21466 44.4325 8.34379C44.4325 7.43942 44.6167 6.63554 44.9852 5.93215C45.3648 5.22875 45.8895 4.68167 46.5594 4.29089C47.2293 3.88895 47.9886 3.68798 48.8371 3.68798ZM60.8057 3.68798C61.096 3.68798 61.336 3.78288 61.5258 3.97269C61.7156 4.16249 61.8105 4.40812 61.8105 4.70958V11.7938C61.8105 12.0841 61.7156 12.3297 61.5258 12.5307C61.336 12.7205 61.096 12.8154 60.8057 12.8154C60.5154 12.8154 60.2753 12.7205 60.0855 12.5307C59.9069 12.3409 59.812 12.1008 59.8008 11.8105C59.5217 12.1343 59.1421 12.4134 58.662 12.6479C58.1931 12.8712 57.6962 12.9828 57.1715 12.9828C56.4011 12.9828 55.7033 12.7875 55.078 12.3967C54.4528 11.9947 53.9559 11.4421 53.5875 10.7387C53.2302 10.0353 53.0516 9.23699 53.0516 8.34379C53.0516 7.45059 53.2302 6.65229 53.5875 5.94889C53.9448 5.23433 54.4305 4.68167 55.0445 4.29089C55.6698 3.88895 56.3564 3.68798 57.1045 3.68798C57.6404 3.68798 58.1428 3.78847 58.6118 3.98944C59.0807 4.17924 59.477 4.42487 59.8008 4.72633V4.70958C59.8008 4.41929 59.8957 4.17924 60.0855 3.98944C60.2753 3.78847 60.5154 3.68798 60.8057 3.68798ZM57.4227 11.1406C58.1484 11.1406 58.7401 10.8782 59.1979 10.3535C59.6557 9.81757 59.8846 9.14767 59.8846 8.34379C59.8846 7.53991 59.6557 6.87001 59.1979 6.33409C58.7401 5.79817 58.1484 5.53021 57.4227 5.53021C56.7081 5.53021 56.122 5.79817 55.6642 6.33409C55.2064 6.87001 54.9775 7.53991 54.9775 8.34379C54.9775 9.14767 55.2008 9.81757 55.6474 10.3535C56.1052 10.8782 56.697 11.1406 57.4227 11.1406ZM63.4693 11.4253C63.3688 11.2913 63.3186 11.1239 63.3186 10.9229C63.3186 10.6326 63.4637 10.387 63.754 10.186C63.9103 10.0855 64.0722 10.0353 64.2397 10.0353C64.4742 10.0353 64.6975 10.1414 64.9096 10.3535C65.2445 10.6996 65.5907 10.9564 65.9479 11.1239C66.3164 11.2913 66.7574 11.3751 67.271 11.3751C68.1419 11.3416 68.5773 11.0122 68.5773 10.387C68.5773 10.0632 68.4266 9.81757 68.1251 9.65009C67.8348 9.48262 67.3771 9.31514 66.7518 9.14767C66.1043 8.96903 65.5739 8.79039 65.1608 8.61175C64.7589 8.43311 64.4072 8.16515 64.1057 7.80787C63.8154 7.43942 63.6703 6.94816 63.6703 6.33409C63.6703 5.79817 63.821 5.33482 64.1225 4.94404C64.4351 4.5421 64.837 4.23507 65.3283 4.02293C65.8307 3.79963 66.361 3.68798 66.9193 3.68798C67.4887 3.68798 68.0581 3.79405 68.6275 4.00618C69.197 4.21832 69.6436 4.53094 69.9673 4.94404C70.1125 5.12268 70.1851 5.32365 70.1851 5.54695C70.1851 5.80375 70.079 6.01588 69.8669 6.18336C69.7105 6.30617 69.5319 6.36758 69.3309 6.36758C69.0853 6.36758 68.8843 6.28943 68.728 6.13312C68.5271 5.88749 68.2647 5.6921 67.9409 5.54695C67.6283 5.40181 67.271 5.32924 66.8691 5.32924C66.0205 5.32924 65.5962 5.63627 65.5962 6.25035C65.5962 6.49598 65.6744 6.69695 65.8307 6.85326C65.987 6.9984 66.1824 7.11564 66.4169 7.20496C66.6625 7.28311 67.003 7.3836 67.4385 7.50641C68.0414 7.67389 68.5438 7.84694 68.9457 8.02558C69.3477 8.20422 69.6882 8.47777 69.9673 8.84621C70.2465 9.21466 70.386 9.70033 70.386 10.3032C70.386 10.8503 70.2241 11.3304 69.9004 11.7435C69.5766 12.1455 69.1579 12.4525 68.6443 12.6646C68.1419 12.8768 67.6227 12.9828 67.0868 12.9828C66.3499 12.9828 65.6632 12.86 65.0268 12.6144C64.3904 12.3688 63.8713 11.9724 63.4693 11.4253ZM76.7739 3.68798C77.8792 3.68798 78.644 4.02851 79.0683 4.70958C79.4926 5.37948 79.7047 6.31176 79.7047 7.50641V11.7938C79.7047 12.0841 79.6098 12.3297 79.42 12.5307C79.2302 12.7205 78.9901 12.8154 78.6999 12.8154C78.4096 12.8154 78.1695 12.7205 77.9797 12.5307C77.7899 12.3297 77.695 12.0841 77.695 11.7938V7.50641C77.695 6.89234 77.5722 6.41224 77.3266 6.06613C77.0921 5.70885 76.6734 5.53021 76.0705 5.53021C75.4453 5.53021 74.954 5.72001 74.5967 6.09962C74.2506 6.46807 74.0775 6.937 74.0775 7.50641V11.7938C74.0775 12.0841 73.9826 12.3297 73.7928 12.5307C73.603 12.7205 73.363 12.8154 73.0727 12.8154C72.7824 12.8154 72.5424 12.7205 72.3526 12.5307C72.1627 12.3297 72.0678 12.0841 72.0678 11.7938V1.44382C72.0678 1.15353 72.1627 0.913478 72.3526 0.723673C72.5424 0.522704 72.7824 0.422219 73.0727 0.422219C73.363 0.422219 73.603 0.522704 73.7928 0.723673C73.9826 0.913478 74.0775 1.15353 74.0775 1.44382V5.14501C74.379 4.74307 74.7586 4.40254 75.2164 4.12342C75.6853 3.83313 76.2045 3.68798 76.7739 3.68798Z" fill="white"/>
</svg>
