<svg width="46" height="34" viewBox="0 0 46 34" fill="none" xmlns="http://www.w3.org/2000/svg">
<path d="M18.0501 24.9097C18.0501 29.8164 14.0724 33.7941 9.16565 33.7941C4.25893 33.7941 0.28125 29.8164 0.28125 24.9097C0.28125 22.3227 1.38695 19.994 3.15156 18.3703C4.73385 16.9143 6.84593 16.0253 9.16565 16.0253C14.0724 16.0253 18.0501 20.003 18.0501 24.9097Z" fill="#197BBD"/>
<path d="M43.6911 24.9097C43.6911 29.8164 39.7134 33.7941 34.8067 33.7941C29.8999 33.7941 25.9223 29.8164 25.9223 24.9097C25.9223 24.2829 25.9872 23.6713 26.1106 23.0812C26.9536 19.0517 30.5267 16.0253 34.8067 16.0253C39.7134 16.0253 43.6911 20.003 43.6911 24.9097Z" fill="#197BBD"/>
<path d="M33.7136 14.2885C33.7136 18.7601 30.4102 22.4601 26.1106 23.0812C25.6922 23.1417 25.2644 23.1729 24.8292 23.1729C20.5169 23.1729 16.9221 20.1005 16.1145 16.0253C16.0032 15.4636 15.9448 14.8829 15.9448 14.2885C15.9448 13.508 16.0455 12.7509 16.2345 12.0296C17.2339 8.21691 20.7031 5.40414 24.8292 5.40414C29.7359 5.40414 33.7136 9.38183 33.7136 14.2885Z" fill="#197BBD"/>
<path d="M18.0501 24.9097C18.0501 29.8164 14.0724 33.7941 9.16565 33.7941H34.8067C29.8999 33.7941 25.9223 29.8164 25.9223 24.9097C25.9223 24.2829 25.9872 23.6713 26.1106 23.0812C25.6922 23.1417 25.2644 23.1729 24.8292 23.1729C20.5169 23.1729 16.9221 20.1005 16.1145 16.0253H10.3191H9.16565C14.0724 16.0253 18.0501 20.003 18.0501 24.9097Z" fill="#197BBD"/>
<path d="M16.1145 16.0253C16.0032 15.4636 15.9448 14.8829 15.9448 14.2885C15.9448 13.508 16.0455 12.7509 16.2345 12.0296C15.4921 13.3615 13.2697 16.0253 10.3191 16.0253H16.1145Z" fill="#197BBD"/>
<circle cx="34.9484" cy="11.584" r="8.01481" transform="rotate(-30 34.9484 11.584)" fill="#FFC145"/>
<path d="M38.184 11.7738C38.47 12.2693 38.5442 12.7841 38.4065 13.3182C38.2688 13.8524 37.9728 14.3279 37.5185 14.7446L37.864 15.3429C37.9606 15.5102 37.9825 15.682 37.9299 15.8582C37.8873 16.0372 37.7824 16.175 37.6152 16.2716C37.4543 16.3644 37.2857 16.3845 37.1095 16.3319C36.937 16.2856 36.8024 16.1789 36.7058 16.0116L36.3938 15.4711C36.0278 15.6396 35.6666 15.7494 35.3102 15.8008C34.9602 15.8484 34.5832 15.8344 34.1793 15.7588C33.9164 15.7047 33.7311 15.5844 33.6234 15.3978C33.5379 15.2498 33.5183 15.0895 33.5645 14.917C33.6071 14.738 33.7055 14.604 33.8599 14.5148C33.9822 14.4442 34.1139 14.4197 34.255 14.4412C34.5473 14.4869 34.8114 14.506 35.0473 14.4985C35.2794 14.4845 35.511 14.4324 35.7419 14.3419L34.6553 12.46C33.2246 12.9686 32.2046 12.6953 31.5954 11.6401C31.2871 11.106 31.2146 10.5645 31.3781 10.0155C31.5378 9.45999 31.8817 8.97835 32.4097 8.57053L32.2258 8.25204C32.1293 8.08475 32.1041 7.91484 32.1503 7.74231C32.1993 7.55963 32.3074 7.42 32.4747 7.32341C32.6355 7.23055 32.8041 7.21044 32.9803 7.26311C33.1528 7.30934 33.2874 7.4161 33.384 7.58338L33.5902 7.94048C34.1928 7.72124 34.7583 7.66066 35.2868 7.75875C35.5588 7.79901 35.7506 7.91565 35.862 8.10868C35.9474 8.25666 35.9689 8.42014 35.9264 8.5991C35.8802 8.77163 35.7831 8.90062 35.6351 8.98606C35.5386 9.04178 35.435 9.06297 35.3243 9.04964C35.0384 9.00023 34.6851 9.01978 34.2644 9.10827L35.2952 10.8937C36.0048 10.6814 36.5847 10.6383 37.035 10.7644C37.4815 10.884 37.8645 11.2205 38.184 11.7738ZM32.7064 10.9343C32.829 11.1466 32.9968 11.2813 33.21 11.3384C33.4194 11.3891 33.6783 11.3769 33.9866 11.3018L33.0617 9.69972C32.8276 9.90349 32.682 10.1119 32.6249 10.3251C32.5678 10.5382 32.5949 10.7413 32.7064 10.9343ZM36.8498 13.5864C36.9919 13.4015 37.0855 13.2145 37.1307 13.0254C37.1722 12.8298 37.1503 12.658 37.0648 12.5101C36.9608 12.3299 36.8202 12.2052 36.643 12.1359C36.462 12.0603 36.2394 12.0387 35.975 12.0712L36.8498 13.5864Z" fill="#404040"/>
</svg>
