<svg width="23" height="19" viewBox="0 0 23 19" fill="none" xmlns="http://www.w3.org/2000/svg">
<path d="M12.6904 1.02255H3.12012C2.01555 1.02255 1.12012 1.91798 1.12012 3.02255V10.7835C1.12012 11.8881 2.01555 12.7835 3.12012 12.7835H12.6904C13.795 12.7835 14.6904 11.8881 14.6904 10.7835V3.02255C14.6904 1.91798 13.795 1.02255 12.6904 1.02255Z" stroke="#22A447" stroke-width="2" stroke-linecap="round" stroke-linejoin="round"/>
<path d="M17 17C18.1046 17 19 16.1046 19 15C19 13.8954 18.1046 13 17 13C15.8954 13 15 13.8954 15 15C15 16.1046 15.8954 17 17 17Z" stroke="#22A447" stroke-width="2" stroke-linecap="round" stroke-linejoin="round"/>
<path d="M14.6895 7.54697C14.6895 6.4424 15.5849 5.54697 16.6895 5.54697H17.4798C18.0102 5.54697 18.5189 5.75768 18.894 6.13275L20.4365 7.67525C20.8116 8.05032 21.0223 8.55903 21.0223 9.08946V10.7845C21.0223 11.889 20.1268 12.7845 19.0223 12.7845H16.6895C15.5849 12.7845 14.6895 11.889 14.6895 10.7845V7.54697Z" stroke="#22A447" stroke-width="2" stroke-linecap="round" stroke-linejoin="round"/>
<path d="M5.19141 17.3058C6.44052 17.3058 7.45313 16.2932 7.45313 15.044C7.45313 13.7949 6.44052 12.7823 5.19141 12.7823C3.94229 12.7823 2.92969 13.7949 2.92969 15.044C2.92969 16.2932 3.94229 17.3058 5.19141 17.3058Z" stroke="#22A447" stroke-width="2" stroke-linecap="round" stroke-linejoin="round"/>
</svg>
